<svg xmlns="http://www.w3.org/2000/svg" width="30" height="30" viewBox="0 0 30 30"><g><g opacity=".5"><path fill="#fff" d="M30 7.524v14.952C30 26.62 26.622 30 22.482 30H7.518C3.378 30 0 26.62 0 22.5V7.524C0 3.38 3.378 0 7.518 0h14.94c4.14 0 7.518 3.381 7.542 7.524zm-20.008 4.38H5.71v12.382h4.282zm.024-4.094c0-1.215-.976-2.191-2.189-2.191a2.184 2.184 0 0 0-2.189 2.19c0 1.215.976 2.191 2.19 2.191 1.189 0 2.164-.976 2.188-2.19zM24.29 24.286V17.5c0-3.357-.69-5.62-4.615-5.62-1.903 0-3.117.74-3.64 1.692h-.095v-1.667h-3.331v12.38h3.569v-6.094c0-1.643.333-3.215 2.355-3.215 1.975 0 2.165 1.857 2.165 3.31v6z"/></g></g></svg>