<svg xmlns="http://www.w3.org/2000/svg" width="30" height="30" viewBox="0 0 30 30"><g><g opacity=".5"><path fill="#fff" d="M30 7.524v14.952C30 26.62 26.622 30 22.482 30H7.518C3.378 30 0 26.62 0 22.5V7.524C0 3.38 3.378 0 7.518 0h14.94c4.14 0 7.518 3.381 7.542 7.524zm-5.662 1.762c-.69.31-1.428.5-2.213.595.785-.476 1.404-1.214 1.69-2.095a7.138 7.138 0 0 1-2.427.928 3.897 3.897 0 0 0-2.807-1.19c-2.118 0-3.83 1.69-3.83 3.785 0 .286.023.572.094.858a10.989 10.989 0 0 1-7.898-3.953 3.753 3.753 0 0 0-.524 1.905c0 1.31.69 2.476 1.713 3.143-.618-.024-1.237-.19-1.713-.476v.047a3.804 3.804 0 0 0 3.022 3.715c-.31.095-.666.142-1.023.142-.238 0-.476-.023-.714-.071a3.833 3.833 0 0 0 3.593 2.619 7.659 7.659 0 0 1-4.759 1.62c-.309 0-.594-.025-.904-.049a10.946 10.946 0 0 0 5.877 1.691c7.066 0 10.92-5.762 10.92-10.762v-.5a7.82 7.82 0 0 0 1.903-1.952z"/></g></g></svg>